<svg width="20" height="20" viewBox="0 0 24 24" fill="none" xmlns="http://www.w3.org/2000/svg">
  <path d="M19.14 12.936c.04-.305.06-.616.06-.936s-.02-.631-.06-.936l2.03-1.585a1 1 0 0 0 .24-1.32l-1.92-3.323a1 1 0 0 0-1.2-.44l-2.39.96a7.972 7.972 0 0 0-1.62-.936l-.36-2.53A1 1 0 0 0 12 0h-4a1 1 0 0 0-.99.84l-.36 2.53c-.57.24-1.11.54-1.62.936l-2.39-.96a1 1 0 0 0-1.2.44L-0.58 7.109a1 1 0 0 0 .24 1.32l2.03 1.585c-.04.305-.06.616-.06.936s.02.631.06.936l-2.03 1.585a1 1 0 0 0-.24 1.32l1.92 3.323a1 1 0 0 0 1.2.44l2.39-.96c.51.396 1.05.696 1.62.936l.36 2.53A1 1 0 0 0 8 24h4a1 1 0 0 0 .99-.84l.36-2.53c.57-.24 1.11-.54 1.62-.936l2.39.96a1 1 0 0 0 1.2-.44l1.92-3.323a1 1 0 0 0-.24-1.32l-2.03-1.585ZM12 16a4 4 0 1 1 0-8 4 4 0 0 1 0 8Z" fill="currentColor"/>
</svg>
