<svg width="40" height="40" viewBox="0 0 40 40" fill="none" xmlns="http://www.w3.org/2000/svg">
<path fill-rule="evenodd" clip-rule="evenodd" d="M14.3604 1.66892C15.382 1.62294 16.2475 2.40549 16.2939 3.41697L16.6348 10.833H34.8145C35.8372 10.833 36.667 11.6544 36.667 12.667C36.6668 13.6793 35.8371 14.5 34.8145 14.5H33.333V31C33.333 35.05 29.6466 38.3329 25.5557 38.333H14.4443C10.3534 38.3329 6.66699 35.05 6.66699 31V14.5H5.18555C4.16291 14.5 3.33319 13.6793 3.33301 12.667C3.33301 11.6544 4.1628 10.833 5.18555 10.833H12.9277L12.5947 3.58298C12.5484 2.57164 13.3388 1.71492 14.3604 1.66892ZM18.4697 14.5C17.5494 14.5001 16.8037 15.2466 16.8037 16.167V22.2588C16.9323 22.2957 17.0644 22.3332 17.1982 22.3711C18.01 22.6008 18.8916 22.8503 19.5176 23.1386L19.7715 23.2656C19.8767 23.3234 19.9793 23.3798 20.0771 23.4326C21.3135 24.1002 22.3502 24.583 23.7041 24.583C25.1957 24.5829 26.1633 24.2291 27.1406 23.8144C27.241 23.7718 27.3457 23.7268 27.4541 23.6797C27.9653 23.4573 28.5662 23.1957 29.2588 23.0068V16.167C29.2588 15.2466 28.5132 14.5001 27.5928 14.5H18.4697ZM11.3975 15.2666C10.4771 15.2667 9.73145 16.0132 9.73145 16.9336V22.3886C9.73153 23.309 10.4772 24.0555 11.3975 24.0556H11.7324C12.6526 24.0554 13.3983 23.3089 13.3984 22.3886V16.9336C13.3984 16.0132 12.6527 15.2668 11.7324 15.2666H11.3975Z" fill="#47A4FF"/>
</svg>
