<svg width="40" height="40" viewBox="0 0 40 40" fill="none" xmlns="http://www.w3.org/2000/svg">
<path fill-rule="evenodd" clip-rule="evenodd" d="M15.833 18.333C17.674 18.333 19.167 19.826 19.167 21.667V36.667H6.66699V25L3.33301 22.5L6.66699 18.333H15.833ZM33.333 20L36.667 25L33.333 28.333V36.667H22.5V23.333C22.5002 21.4923 23.9923 20.0002 25.833 20H33.333ZM31.667 14.167C31.6668 16.0078 30.1738 17.5 28.333 17.5C26.4923 17.4998 25.0002 16.0077 25 14.167V11.667C25 9.82615 26.4922 8.33318 28.333 8.33301H31.667V14.167ZM16.667 11.25C16.667 13.321 14.9879 14.9998 12.917 15C10.8459 15 9.16699 13.3211 9.16699 11.25V8.33301C9.16717 6.49221 10.6592 5 12.5 5H16.667V11.25Z" fill="#47A4FF"/>
</svg>
