<svg width="40" height="40" viewBox="0 0 40 40" fill="none" xmlns="http://www.w3.org/2000/svg">
<path fill-rule="evenodd" clip-rule="evenodd" d="M19.2767 3.49441C19.7529 3.38858 20.2467 3.38858 20.7229 3.49441L33.802 6.40066C34.5143 6.55893 35.0396 7.15854 35.0804 7.88699C35.2407 10.7553 35.4798 18.0794 34.1663 23.3333C32.3804 30.477 23.3339 36.6659 20.0003 36.6663C16.667 36.6663 7.61931 30.4772 5.8333 23.3333C4.51983 18.0794 4.75885 10.7553 4.91924 7.88699C4.96001 7.15853 5.48533 6.55894 6.19756 6.40066L19.2767 3.49441ZM28.678 12.9886C28.0272 12.3377 26.9724 12.3377 26.3216 12.9886L18.3333 20.9759L14.512 17.1546C13.8612 16.5037 12.8055 16.5038 12.1546 17.1546C11.5037 17.8054 11.5037 18.8611 12.1546 19.512L17.1546 24.512C17.8055 25.1629 18.8611 25.1629 19.512 24.512L28.678 15.345C29.3289 14.6941 29.3289 13.6394 28.678 12.9886Z" fill="#F7C034"/>
</svg>
