<svg width="40" height="40" viewBox="0 0 40 40" fill="none" xmlns="http://www.w3.org/2000/svg">
<path fill-rule="evenodd" clip-rule="evenodd" d="M19.2767 3.49441C19.7529 3.38858 20.2467 3.38859 20.7229 3.49441L33.802 6.40066C34.5143 6.55893 35.0396 7.15854 35.0804 7.88699C35.2407 10.7553 35.4798 18.0794 34.1663 23.3333C32.3804 30.477 23.3339 36.6659 20.0003 36.6663C16.667 36.6663 7.61931 30.4772 5.8333 23.3333C4.51984 18.0794 4.75885 10.7553 4.91924 7.88699C4.96001 7.15854 5.48533 6.55893 6.19756 6.40066L19.2767 3.49441ZM20.4534 10.1428C20.2741 9.75733 19.7254 9.75726 19.5462 10.1428L17.2845 15.0149C17.2116 15.1717 17.0625 15.2802 16.8909 15.3011L11.5579 15.9466C11.1357 15.9979 10.9661 16.5202 11.2776 16.8098L15.2122 20.4671C15.3387 20.5848 15.3958 20.7594 15.3626 20.929L14.3294 26.2005C14.2476 26.6178 14.6911 26.9403 15.0628 26.7337L19.7571 24.1223C19.9083 24.0383 20.0923 24.0383 20.2435 24.1223L24.9368 26.7337C25.3085 26.9405 25.7528 26.6179 25.6712 26.2005L24.638 20.929C24.6048 20.7594 24.661 20.5848 24.7874 20.4671L28.722 16.8098C29.0336 16.5202 28.8641 15.9977 28.4417 15.9466L23.1097 15.3011C22.938 15.2802 22.789 15.1718 22.7161 15.0149L20.4534 10.1428Z" fill="#FF8000"/>
</svg>
