<svg width="40" height="40" viewBox="0 0 40 40" fill="none" xmlns="http://www.w3.org/2000/svg">
<path fill-rule="evenodd" clip-rule="evenodd" d="M24.8887 23.9883C25.3431 23.5845 25.9809 23.4604 26.5537 23.6641L31.6748 25.4844C33.6681 26.1931 34.9999 28.0798 35 30.1953V35H5V30.1953C5.00009 28.0798 6.33187 26.1931 8.3252 25.4844L13.4463 23.6641C14.0191 23.4604 14.6569 23.5845 15.1113 23.9883L18.8926 27.3486C19.5241 27.9099 20.4759 27.9099 21.1074 27.3486L24.8887 23.9883ZM26.667 5V15C26.667 18.6819 23.6819 21.667 20 21.667C16.3181 21.667 13.333 18.6819 13.333 15V10C13.333 7.23869 15.5717 5.00018 18.333 5H26.667Z" fill="#47A4FF"/>
</svg>
