<svg width="40" height="40" viewBox="0 0 40 40" fill="none" xmlns="http://www.w3.org/2000/svg">
<path fill-rule="evenodd" clip-rule="evenodd" d="M10.1329 26.2265C11.0823 27.7279 12.3642 28.9984 13.876 29.9326L11.9532 31.8554C12.1719 32.2812 12.2852 32.7578 12.2852 33.2382C12.2852 34.1367 11.8907 34.9843 11.1993 35.5586C10.6563 36.0156 9.9727 36.2578 9.2696 36.2578C9.08603 36.2578 8.90239 36.2421 8.71882 36.207C7.75009 36.0351 6.63288 35.1679 6.34772 33.875C4.4845 33.4804 3.82039 32.1523 3.82819 31C3.84382 29.25 5.1251 27.8437 6.75007 27.7929C7.26568 27.7734 7.77742 27.8945 8.23054 28.1289L10.1329 26.2265ZM31.8516 28.1289C33.0704 27.5039 34.668 27.8203 35.5548 28.8828C36.129 29.5703 36.3673 30.4765 36.2032 31.3671C36.0313 32.3359 35.1641 33.4531 33.8712 33.7382C33.4766 35.5898 32.1641 36.2578 31.0196 36.2578H30.9962C29.2501 36.2421 27.8399 34.9609 27.7891 33.3359C27.7735 32.8203 27.8907 32.3085 28.1251 31.8554L26.1719 29.9023C27.6797 28.9606 28.957 27.684 29.8995 26.1767L31.8516 28.1289ZM20.3477 10.5039C23.004 10.5078 26.6173 11.9336 28.2657 15.0468C29.7501 17.8593 29.7462 20.3515 28.254 21.7187C28.0509 21.957 27.8165 23.1328 27.9844 23.6836C28.3048 24.5078 28.3165 25.2734 27.9923 25.8906C27.5146 26.7953 26.5118 27.0283 25.8399 27.1845L25.8282 27.1875C25.7032 27.2148 25.5274 27.2578 25.418 27.2929C25.3946 27.4492 25.3829 27.8672 25.418 28.1171C25.4493 28.3437 25.4063 28.5937 25.2891 28.789C24.3946 30.3046 22.1993 31.0976 20.4923 31.0976C18.1524 31.0976 16.2657 30.2265 15.4454 28.7656C15.2511 28.4198 15.2422 28.0504 15.2344 27.7236V27.7187L15.2335 27.6738C15.2298 27.5596 15.2242 27.3992 15.2071 27.2929C15.1529 27.2767 15.0932 27.2621 15.0303 27.247C15.0026 27.2404 14.9741 27.2337 14.9454 27.2265L14.9278 27.2216C14.2715 27.0498 13.2886 26.7926 12.8008 25.8945C12.4844 25.3164 12.4571 24.6132 12.7227 23.8125C13.1165 22.6195 12.7245 22.1033 12.4395 21.7285L12.4376 21.7265L12.3048 21.5468C11.1524 19.8711 11.172 17.4531 12.3516 15.0703C13.8321 12.082 16.5899 10.5039 20.3282 10.5039H20.3477ZM20.3897 22.4707C20.0944 22.4707 19.9626 22.6211 19.8829 22.7382L19.4659 23.4648L18.463 25.1992C18.2524 25.5647 18.5148 25.9906 18.9366 26.0234C18.9494 26.0247 18.9652 26.0271 18.9825 26.0293C19.0285 26.0351 19.0869 26.0429 19.1378 26.0429C19.1753 26.0429 19.2128 26.0375 19.2315 26.0234C19.4591 25.8907 19.6534 25.4301 19.7911 25.1025C19.8236 25.0252 19.853 24.9548 19.879 24.8984C19.9681 24.7067 20.1597 24.6134 20.3516 24.6132C20.5437 24.6132 20.7361 24.7065 20.8253 24.8984C20.8512 24.9548 20.8807 25.0252 20.9132 25.1025C21.0509 25.4301 21.2452 25.8907 21.4727 26.0234C21.4962 26.0374 21.529 26.0429 21.5665 26.0429C21.6174 26.0429 21.6757 26.0351 21.7217 26.0293C21.7391 26.0271 21.7548 26.0247 21.7676 26.0234C22.1894 25.9906 22.4565 25.5647 22.2413 25.1992L21.5753 24.0507L20.8204 22.7421C20.736 22.5877 20.5863 22.4707 20.3897 22.4707ZM16.462 17.0937C15.9418 17.0937 15.4633 17.2581 15.0743 17.5439C14.4791 17.9657 14.0852 18.6689 14.085 19.4609C14.085 20.5109 14.7739 21.4023 15.7208 21.707C15.9551 21.7867 16.2042 21.8242 16.462 21.8242C17.254 21.824 17.9525 21.4391 18.379 20.8486C18.6695 20.4596 18.838 19.9811 18.838 19.4609C18.8379 19.1985 18.7963 18.95 18.712 18.7158C18.4026 17.7738 17.5118 17.0939 16.462 17.0937ZM24.2383 17.0937C23.1229 17.0937 22.1803 17.8626 21.9317 18.8984C21.8849 19.0811 21.8614 19.2689 21.8614 19.4609C21.8614 19.9155 21.9931 20.3422 22.2227 20.7031C22.6399 21.3734 23.3852 21.8242 24.2383 21.8242C24.4304 21.8242 24.613 21.7999 24.7911 21.7578C25.8364 21.514 26.6143 20.5765 26.6143 19.4609C26.6142 18.6079 26.1601 17.8577 25.4805 17.4453C25.1244 17.225 24.6976 17.0938 24.2383 17.0937ZM28.8712 4.53121C29.5586 3.95701 30.4649 3.71873 31.3555 3.88277C32.3243 4.05465 33.4415 4.92184 33.7266 6.2148C35.5899 6.60934 36.254 7.93746 36.2462 9.0898C36.2305 10.8359 34.9493 12.2461 33.3243 12.2968C32.8087 12.3124 32.2969 12.1953 31.8438 11.9609L29.9307 13.874C28.9957 12.3615 27.7254 11.0781 26.2227 10.1289L28.1173 8.23434C27.8985 7.80856 27.7852 7.33589 27.7852 6.85152C27.7852 5.95311 28.1798 5.10543 28.8712 4.53121ZM9.08601 3.8359C10.8321 3.85152 12.2423 5.13277 12.293 6.75777C12.3087 7.27339 12.1915 7.78513 11.9571 8.23824L13.8214 10.1025C12.3145 11.0452 11.0381 12.3222 10.0967 13.83L8.23054 11.9648C7.01179 12.5898 5.41411 12.2734 4.52741 11.2109C3.95321 10.5234 3.71493 9.61713 3.87897 8.72652C4.05085 7.75779 4.91808 6.64061 6.21101 6.35543C6.60553 4.49219 7.94149 3.85936 9.08601 3.8359Z" fill="#FF5A5A"/>
</svg>
