{
  "materials": [
    {
      "name": "AM_131_building_000_fromVray城市模型_023.bmp",
      "occlusionTexture": {
        "index": 0,
        "texCoord": 1
      },
      "pbrMetallicRoughness": {
        "baseColorTexture": {
          "index": 1,
          "texCoord": 0
        },
        "baseColorFactor": [
          1.0,
          1.0,
          1.0,
          1.0
        ],
        "metallicFactor": 0,
        "roughnessFactor": 1
      },
      "alphaMode": "OPAQUE"
    }
  ],
  "images": [
    {
      "uri": "data:image/jpeg;base64,"
    },
    {
      "uri": "data:image/jpeg;base64,"
    }
  ],
  "textures": [
    {
      "name": "城市模型_023_f_bmp.jpg",
      "sampler": 0,
      "source": 0
    },
    {
      "name": "AM_131_city_building_05_diffuse.jpg",
      "sampler": 0,
      "source": 1
    }
  ],
  "meshes": [
    {
      "name": "AM_131_building_obj_191",
      "primitives": [
        {
          "material": 0,
          "mode": 4,
          "indices": 0,
          "attributes": {
            "COLOR_0": 3,
            "NORMAL": 2,
            "POSITION": 1,
            "TEXCOORD_0": 4,
            "TEXCOORD_1": 5
          }
        }
      ]
    }
  ],
  "buffers": [
    {
      "byteLength": 71416,
      "uri": "data:application/octet-stream;base64,"
    }
  ],
  "bufferViews": [
    {
      "buffer": 0,
      "target": 34963,
      "byteLength": 4494,
      "byteOffset": 0
    },
    {
      "buffer": 0,
      "target": 34962,
      "byteLength": 14340,
      "byteOffset": 4496
    },
    {
      "buffer": 0,
      "target": 34962,
      "byteLength": 14340,
      "byteOffset": 18836
    },
    {
      "buffer": 0,
      "target": 34962,
      "byteLength": 19120,
      "byteOffset": 33176
    },
    {
      "buffer": 0,
      "target": 34962,
      "byteLength": 9560,
      "byteOffset": 52296
    },
    {
      "buffer": 0,
      "target": 34962,
      "byteLength": 9560,
      "byteOffset": 61856
    }
  ],
  "accessors": [
    {
      "componentType": 5123,
      "type": "SCALAR",
      "bufferView": 0,
      "byteOffset": 0,
      "count": 2247
    },
    {
      "componentType": 5126,
      "type": "VEC3",
      "bufferView": 1,
      "byteOffset": 0,
      "count": 1195,
      "min": [
        -7.97376537322998,
        -4.92117691040039,
        -0.00804758071899414
      ],
      "max": [
        7.97376537322998,
        4.92117691040039,
        11.6869583129883
      ]
    },
    {
      "componentType": 5126,
      "type": "VEC3",
      "bufferView": 2,
      "byteOffset": 0,
      "count": 1195
    },
    {
      "componentType": 5126,
      "type": "VEC4",
      "bufferView": 3,
      "byteOffset": 0,
      "count": 1195
    },
    {
      "componentType": 5126,
      "type": "VEC2",
      "bufferView": 4,
      "byteOffset": 0,
      "count": 1195
    },
    {
      "componentType": 5126,
      "type": "VEC2",
      "bufferView": 5,
      "byteOffset": 0,
      "count": 1195
    }
  ],
  "nodes": [
    {
      "name": "RootNode",
      "translation": [
        0.0,
        0.0,
        0.0
      ],
      "rotation": [
        0.0,
        0.0,
        0.0,
        1.0
      ],
      "scale": [
        1.0,
        1.0,
        1.0
      ],
      "children": [
        1
      ]
    },
    {
      "name": "AM_131_building_obj_191",
      "translation": [
        1.02519989013672E-05,
        0.0,
        1.89719526133558E-06
      ],
      "rotation": [
        -0.70710676908493,
        0.0,
        0.0,
        0.70710676908493
      ],
      "scale": [
        1.0,
        1.0,
        1.0
      ],
      "mesh": 0
    }
  ],
  "asset": {
    "generator": "FBX2glTF",
    "version": "2.0"
  },
  "scene": 0,
  "scenes": [
    {
      "name": "Root Scene",
      "nodes": [
        0
      ]
    }
  ],
  "samplers": [
    {}
  ]
}
